<?xml version="1.0" standalone="no"?><!DOCTYPE svg PUBLIC "-//W3C//DTD SVG 1.1//EN" "http://www.w3.org/Graphics/SVG/1.1/DTD/svg11.dtd"><svg t="1621476849511" class="icon" viewBox="0 0 1024 1024" version="1.1" xmlns="http://www.w3.org/2000/svg" p-id="1197" xmlns:xlink="http://www.w3.org/1999/xlink" width="200" height="200"><defs><style type="text/css"></style></defs><path d="M512.008 81.856c-237.562 0-430.14 192.588-430.14 430.148 0 237.552 192.578 430.136 430.14 430.136 237.546 0 430.132-192.584 430.132-430.136 0-237.56-192.586-430.148-430.132-430.148z" fill="#EDF3FC" p-id="1198"></path><path d="M512.008 2C230.786 2 2 230.788 2 512.004S230.786 1022 512.008 1022C793.222 1022 1022 793.22 1022 512.004S793.222 2 512.008 2z m0 1003.664c-272.21 0-493.664-221.456-493.664-493.66C18.344 239.794 239.796 18.34 512.008 18.34c272.204 0 493.648 221.456 493.648 493.664 0 272.204-221.446 493.66-493.648 493.66z" fill="#EDF3FC" p-id="1199"></path><path d="M512.004 212.006c-165.696 0-300.004 134.32-300.004 300.008s134.308 300 300.004 300c165.68 0 299.996-134.312 299.996-300s-134.316-300.008-299.996-300.008z" fill="#6857E5" p-id="1200"></path><path d="M512.004 286.826c-124.376 0-225.2 100.816-225.2 225.188 0 124.366 100.824 225.188 225.2 225.188 124.364 0 225.184-100.822 225.184-225.188 0-124.372-100.82-225.188-225.184-225.188z" fill="#330D84" p-id="1201"></path><path d="M376.398 397.66l107.124 283.81 16.696-158.6zM507.87 525.652l-17.738 159.994L661.6 482.524zM380.918 390.356l123.474 124.166 97.036-85.908zM607.342 433.83L512.042 518l149.558-42.434z" fill="#FFFFFF" p-id="1202"></path><path d="M182.356 398.684a35.106 35.106 0 0 1-25.528-25.528l-0.54-2.142-0.54 2.142a35.106 35.106 0 0 1-25.532 25.528l-2.136 0.54 2.136 0.538a35.108 35.108 0 0 1 25.532 25.528l0.54 2.144 0.54-2.144a35.112 35.112 0 0 1 25.528-25.528l2.144-0.538-2.144-0.54zM840.614 727.494a59.716 59.716 0 0 1-43.41-43.406l-0.918-3.644-0.914 3.644a59.72 59.72 0 0 1-43.418 43.406l-3.636 0.914 3.636 0.914a59.714 59.714 0 0 1 43.418 43.414l0.914 3.644 0.918-3.644a59.704 59.704 0 0 1 43.41-43.414l3.648-0.914-3.648-0.914zM268.434 305.002a63.58 63.58 0 0 1-46.226-46.224l-0.98-3.878-0.972 3.878a63.6 63.6 0 0 1-46.238 46.224l-3.876 0.972 3.876 0.974a63.584 63.584 0 0 1 46.238 46.238l0.972 3.874 0.98-3.874a63.562 63.562 0 0 1 46.226-46.238l3.882-0.974-3.882-0.972z" fill="#330D84" p-id="1203"></path></svg>